<svg class="plot" fill="currentColor" text-anchor="middle" width="640" height="400" viewBox="0 0 640 400" xmlns="http://www.w3.org/2000/svg" xmlns:xlink="http://www.w3.org/1999/xlink"><g transform="translate(40,0)" fill="none" text-anchor="end"><g class="tick" opacity="1" transform="translate(0,342.6256983240223)"><line stroke="currentColor" x2="-6"/><line stroke="currentColor" x2="580" stroke-opacity="0.1"/><text fill="currentColor" x="-9" dy="0.32em">60</text></g><g class="tick" opacity="1" transform="translate(0,303.5195530726257)"><line stroke="currentColor" x2="-6"/><line stroke="currentColor" x2="580" stroke-opacity="0.1"/><text fill="currentColor" x="-9" dy="0.32em">80</text></g><g class="tick" opacity="1" transform="translate(0,264.41340782122904)"><line stroke="currentColor" x2="-6"/><line stroke="currentColor" x2="580" stroke-opacity="0.1"/><text fill="currentColor" x="-9" dy="0.32em">100</text></g><g class="tick" opacity="1" transform="translate(0,225.3072625698324)"><line stroke="currentColor" x2="-6"/><line stroke="currentColor" x2="580" stroke-opacity="0.1"/><text fill="currentColor" x="-9" dy="0.32em">120</text></g><g class="tick" opacity="1" transform="translate(0,186.20111731843573)"><line stroke="currentColor" x2="-6"/><line stroke="currentColor" x2="580" stroke-opacity="0.1"/><text fill="currentColor" x="-9" dy="0.32em">140</text></g><g class="tick" opacity="1" transform="translate(0,147.09497206703912)"><line stroke="currentColor" x2="-6"/><line stroke="currentColor" x2="580" stroke-opacity="0.1"/><text fill="currentColor" x="-9" dy="0.32em">160</text></g><g class="tick" opacity="1" transform="translate(0,107.98882681564247)"><line stroke="currentColor" x2="-6"/><line stroke="currentColor" x2="580" stroke-opacity="0.1"/><text fill="currentColor" x="-9" dy="0.32em">180</text></g><g class="tick" opacity="1" transform="translate(0,68.88268156424581)"><line stroke="currentColor" x2="-6"/><line stroke="currentColor" x2="580" stroke-opacity="0.1"/><text fill="currentColor" x="-9" dy="0.32em">200</text></g><g class="tick" opacity="1" transform="translate(0,29.77653631284917)"><line stroke="currentColor" x2="-6"/><line stroke="currentColor" x2="580" stroke-opacity="0.1"/><text fill="currentColor" x="-9" dy="0.32em">220</text></g><text fill="currentColor" transform="translate(-40,20)" dy="-1em" text-anchor="start">↑ Y</text></g><g transform="translate(0,370)" fill="none" text-anchor="middle"><g class="tick" opacity="1" transform="translate(93.29729729729729,0)"><line stroke="currentColor" y2="6"/><line stroke="currentColor" y2="-350" stroke-opacity="0.1"/><text fill="currentColor" y="9" dy="0.71em">40</text></g><g class="tick" opacity="1" transform="translate(156,0)"><line stroke="currentColor" y2="6"/><line stroke="currentColor" y2="-350" stroke-opacity="0.1"/><text fill="currentColor" y="9" dy="0.71em">60</text></g><g class="tick" opacity="1" transform="translate(218.7027027027027,0)"><line stroke="currentColor" y2="6"/><line stroke="currentColor" y2="-350" stroke-opacity="0.1"/><text fill="currentColor" y="9" dy="0.71em">80</text></g><g class="tick" opacity="1" transform="translate(281.4054054054054,0)"><line stroke="currentColor" y2="6"/><line stroke="currentColor" y2="-350" stroke-opacity="0.1"/><text fill="currentColor" y="9" dy="0.71em">100</text></g><g class="tick" opacity="1" transform="translate(344.10810810810807,0)"><line stroke="currentColor" y2="6"/><line stroke="currentColor" y2="-350" stroke-opacity="0.1"/><text fill="currentColor" y="9" dy="0.71em">120</text></g><g class="tick" opacity="1" transform="translate(406.8108108108108,0)"><line stroke="currentColor" y2="6"/><line stroke="currentColor" y2="-350" stroke-opacity="0.1"/><text fill="currentColor" y="9" dy="0.71em">140</text></g><g class="tick" opacity="1" transform="translate(469.5135135135135,0)"><line stroke="currentColor" y2="6"/><line stroke="currentColor" y2="-350" stroke-opacity="0.1"/><text fill="currentColor" y="9" dy="0.71em">160</text></g><g class="tick" opacity="1" transform="translate(532.2162162162163,0)"><line stroke="currentColor" y2="6"/><line stroke="currentColor" y2="-350" stroke-opacity="0.1"/><text fill="currentColor" y="9" dy="0.71em">180</text></g><g class="tick" opacity="1" transform="translate(594.9189189189188,0)"><line stroke="currentColor" y2="6"/><line stroke="currentColor" y2="-350" stroke-opacity="0.1"/><text fill="currentColor" y="9" dy="0.71em">200</text></g><text fill="currentColor" transform="translate(640,30)" dy="-0.32em" text-anchor="end">X →</text></g><g><circle cx="312.7567567567568" cy="201.84357541899442" r="3" fill="rgb(35, 23, 27)"><title>0</title></circle><circle cx="322.16216216216213" cy="209.66480446927372" r="3" fill="rgb(36, 24, 31)"><title>42</title></circle><circle cx="315.89189189189193" cy="201.84357541899442" r="3" fill="rgb(49, 31, 69)"><title>435</title></circle><circle cx="325.2972972972973" cy="207.7094972067039" r="3" fill="rgb(72, 58, 164)"><title>1758</title></circle><circle cx="328.43243243243245" cy="205.75418994413408" r="3" fill="rgb(74, 63, 178)"><title>2016</title></circle><circle cx="322.16216216216213" cy="215.53072625698326" r="3" fill="rgb(74, 68, 188)"><title>2234</title></circle><circle cx="328.43243243243245" cy="225.3072625698324" r="3" fill="rgb(75, 69, 190)"><title>2282</title></circle><circle cx="334.7027027027027" cy="238.99441340782124" r="3" fill="rgb(75, 70, 193)"><title>2340</title></circle><circle cx="337.83783783783787" cy="244.8603351955307" r="3" fill="rgb(75, 71, 193)"><title>2346</title></circle><circle cx="344.10810810810807" cy="250.72625698324026" r="3" fill="rgb(75, 71, 194)"><title>2362</title></circle><circle cx="350.37837837837833" cy="256.5921787709497" r="3" fill="rgb(75, 71, 195)"><title>2386</title></circle><circle cx="347.2432432432433" cy="237.0391061452514" r="3" fill="rgb(74, 82, 212)"><title>2858</title></circle><circle cx="334.7027027027027" cy="231.1731843575419" r="3" fill="rgb(73, 91, 225)"><title>3281</title></circle><circle cx="315.89189189189193" cy="225.3072625698324" r="3" fill="rgb(72, 96, 230)"><title>3468</title></circle><circle cx="306.4864864864865" cy="229.21787709497204" r="3" fill="rgb(70, 100, 234)"><title>3652</title></circle><circle cx="293.945945945946" cy="229.21787709497204" r="3" fill="rgb(68, 106, 238)"><title>3919</title></circle><circle cx="284.5405405405406" cy="225.3072625698324" r="3" fill="rgb(67, 109, 240)"><title>4046</title></circle><circle cx="275.13513513513516" cy="215.53072625698326" r="3" fill="rgb(66, 112, 242)"><title>4177</title></circle><circle cx="265.72972972972974" cy="207.7094972067039" r="3" fill="rgb(63, 119, 246)"><title>4519</title></circle><circle cx="262.5945945945946" cy="199.88826815642457" r="3" fill="rgb(61, 124, 247)"><title>4722</title></circle><circle cx="262.5945945945946" cy="192.06703910614527" r="3" fill="rgb(60, 126, 248)"><title>4810</title></circle><circle cx="275.13513513513516" cy="182.2905027932961" r="3" fill="rgb(59, 130, 248)"><title>4990</title></circle><circle cx="287.6756756756757" cy="176.4245810055866" r="3" fill="rgb(57, 135, 249)"><title>5211</title></circle><circle cx="297.0810810810811" cy="168.60335195530726" r="3" fill="rgb(55, 139, 249)"><title>5395</title></circle><circle cx="303.35135135135135" cy="160.78212290502796" r="3" fill="rgb(54, 142, 249)"><title>5523</title></circle><circle cx="315.89189189189193" cy="158.8268156424581" r="3" fill="rgb(52, 146, 248)"><title>5708</title></circle><circle cx="328.43243243243245" cy="156.87150837988827" r="3" fill="rgb(51, 148, 248)"><title>5821</title></circle><circle cx="340.97297297297297" cy="156.87150837988827" r="3" fill="rgb(50, 151, 247)"><title>5942</title></circle><circle cx="356.64864864864865" cy="162.73743016759775" r="3" fill="rgb(49, 152, 247)"><title>6020</title></circle><circle cx="369.18918918918916" cy="168.60335195530726" r="3" fill="rgb(48, 156, 245)"><title>6187</title></circle><circle cx="381.72972972972974" cy="172.51396648044692" r="3" fill="rgb(46, 159, 244)"><title>6322</title></circle><circle cx="394.27027027027026" cy="178.37988826815644" r="3" fill="rgb(45, 162, 243)"><title>6454</title></circle><circle cx="403.6756756756757" cy="188.15642458100558" r="3" fill="rgb(45, 163, 242)"><title>6540</title></circle><circle cx="413.08108108108104" cy="195.97765363128494" r="3" fill="rgb(44, 165, 241)"><title>6624</title></circle><circle cx="416.21621621621625" cy="203.79888268156427" r="3" fill="rgb(44, 166, 241)"><title>6677</title></circle><circle cx="416.21621621621625" cy="209.66480446927372" r="3" fill="rgb(43, 167, 240)"><title>6717</title></circle><circle cx="416.21621621621625" cy="219.4413407821229" r="3" fill="rgb(43, 169, 239)"><title>6805</title></circle><circle cx="409.94594594594594" cy="227.2625698324022" r="3" fill="rgb(42, 171, 238)"><title>6917</title></circle><circle cx="406.8108108108108" cy="235.08379888268155" r="3" fill="rgb(38, 186, 227)"><title>7685</title></circle><circle cx="400.5405405405406" cy="242.90502793296088" r="3" fill="rgb(38, 190, 223)"><title>7905</title></circle><circle cx="388" cy="248.7709497206704" r="3" fill="rgb(37, 193, 221)"><title>8053</title></circle><circle cx="375.4594594594594" cy="256.5921787709497" r="3" fill="rgb(37, 199, 214)"><title>8432</title></circle><circle cx="372.3243243243244" cy="262.4581005586592" r="3" fill="rgb(37, 200, 214)"><title>8450</title></circle><circle cx="359.7837837837838" cy="264.41340782122904" r="3" fill="rgb(37, 202, 211)"><title>8582</title></circle><circle cx="347.2432432432433" cy="272.23463687150837" r="3" fill="rgb(37, 205, 207)"><title>8782</title></circle><circle cx="334.7027027027027" cy="276.14525139664806" r="3" fill="rgb(38, 208, 204)"><title>8958</title></circle><circle cx="322.16216216216213" cy="278.1005586592179" r="3" fill="rgb(38, 210, 202)"><title>9078</title></circle><circle cx="309.62162162162167" cy="282.0111731843575" r="3" fill="rgb(38, 212, 200)"><title>9182</title></circle><circle cx="297.0810810810811" cy="282.0111731843575" r="3" fill="rgb(39, 213, 198)"><title>9270</title></circle><circle cx="284.5405405405406" cy="283.9664804469274" r="3" fill="rgb(39, 215, 195)"><title>9407</title></circle><circle cx="272" cy="287.877094972067" r="3" fill="rgb(40, 216, 194)"><title>9472</title></circle><circle cx="259.4594594594595" cy="293.74301675977654" r="3" fill="rgb(40, 217, 192)"><title>9546</title></circle><circle cx="250.05405405405406" cy="295.6983240223464" r="3" fill="rgb(40, 218, 191)"><title>9588</title></circle><circle cx="237.51351351351354" cy="291.7877094972067" r="3" fill="rgb(43, 223, 184)"><title>9952</title></circle><circle cx="224.97297297297297" cy="287.877094972067" r="3" fill="rgb(43, 224, 182)"><title>10025</title></circle><circle cx="212.43243243243242" cy="282.0111731843575" r="3" fill="rgb(44, 225, 181)"><title>10091</title></circle><circle cx="199.8918918918919" cy="274.18994413407825" r="3" fill="rgb(44, 226, 180)"><title>10146</title></circle><circle cx="193.62162162162164" cy="268.32402234636874" r="3" fill="rgb(45, 226, 178)"><title>10210</title></circle><circle cx="184.21621621621622" cy="260.5027932960894" r="3" fill="rgb(45, 227, 178)"><title>10219</title></circle><circle cx="171.67567567567568" cy="256.5921787709497" r="3" fill="rgb(45, 227, 177)"><title>10283</title></circle><circle cx="165.40540540540542" cy="250.72625698324026" r="3" fill="rgb(46, 228, 175)"><title>10343</title></circle><circle cx="162.27027027027026" cy="242.90502793296088" r="3" fill="rgb(46, 229, 174)"><title>10411</title></circle><circle cx="159.13513513513513" cy="237.0391061452514" r="3" fill="rgb(47, 230, 173)"><title>10473</title></circle><circle cx="159.13513513513513" cy="227.2625698324022" r="3" fill="rgb(47, 230, 172)"><title>10507</title></circle><circle cx="156" cy="219.4413407821229" r="3" fill="rgb(49, 231, 170)"><title>10611</title></circle><circle cx="152.86486486486487" cy="209.66480446927372" r="3" fill="rgb(49, 232, 169)"><title>10635</title></circle><circle cx="149.72972972972974" cy="199.88826815642457" r="3" fill="rgb(50, 233, 167)"><title>10742</title></circle><circle cx="146.59459459459458" cy="192.06703910614527" r="3" fill="rgb(51, 234, 165)"><title>10821</title></circle><circle cx="152.86486486486487" cy="180.33519553072622" r="3" fill="rgb(53, 235, 162)"><title>10968</title></circle><circle cx="159.13513513513513" cy="170.5586592178771" r="3" fill="rgb(53, 236, 161)"><title>11020</title></circle><circle cx="162.27027027027026" cy="162.73743016759775" r="3" fill="rgb(54, 237, 160)"><title>11101</title></circle><circle cx="159.13513513513513" cy="154.91620111731845" r="3" fill="rgb(55, 237, 159)"><title>11151</title></circle><circle cx="159.13513513513513" cy="145.13966480446925" r="3" fill="rgb(56, 238, 157)"><title>11221</title></circle><circle cx="162.27027027027026" cy="137.31843575418995" r="3" fill="rgb(57, 239, 155)"><title>11309</title></circle><circle cx="165.40540540540542" cy="131.45251396648047" r="3" fill="rgb(59, 240, 153)"><title>11437</title></circle><circle cx="174.81081081081084" cy="123.6312849162011" r="3" fill="rgb(61, 241, 150)"><title>11550</title></circle><circle cx="187.35135135135135" cy="119.72067039106145" r="3" fill="rgb(63, 242, 148)"><title>11677</title></circle><circle cx="199.8918918918919" cy="113.85474860335196" r="3" fill="rgb(65, 243, 145)"><title>11809</title></circle><circle cx="209.29729729729732" cy="106.03351955307261" r="3" fill="rgb(67, 244, 142)"><title>11945</title></circle><circle cx="218.7027027027027" cy="104.07821229050279" r="3" fill="rgb(68, 245, 141)"><title>12006</title></circle><circle cx="231.24324324324326" cy="100.16759776536314" r="3" fill="rgb(70, 246, 139)"><title>12119</title></circle><circle cx="243.78378378378378" cy="100.16759776536314" r="3" fill="rgb(72, 247, 137)"><title>12224</title></circle><circle cx="256.3243243243243" cy="100.16759776536314" r="3" fill="rgb(72, 247, 136)"><title>12254</title></circle><circle cx="268.8648648648649" cy="104.07821229050279" r="3" fill="rgb(73, 247, 135)"><title>12310</title></circle><circle cx="284.5405405405406" cy="107.98882681564247" r="3" fill="rgb(74, 247, 134)"><title>12356</title></circle><circle cx="293.945945945946" cy="109.94413407821227" r="3" fill="rgb(74, 247, 134)"><title>12366</title></circle><circle cx="306.4864864864865" cy="117.76536312849163" r="3" fill="rgb(75, 248, 133)"><title>12414</title></circle><circle cx="306.4864864864865" cy="111.89944134078213" r="3" fill="rgb(78, 248, 131)"><title>12534</title></circle><circle cx="300.21621621621625" cy="100.16759776536314" r="3" fill="rgb(79, 249, 129)"><title>12621</title></circle><circle cx="300.21621621621625" cy="92.34636871508378" r="3" fill="rgb(83, 250, 126)"><title>12798</title></circle><circle cx="315.89189189189193" cy="88.43575418994412" r="3" fill="rgb(84, 250, 124)"><title>12886</title></circle><circle cx="328.43243243243245" cy="88.43575418994412" r="3" fill="rgb(85, 251, 123)"><title>12934</title></circle><circle cx="340.97297297297297" cy="86.4804469273743" r="3" fill="rgb(87, 251, 122)"><title>13011</title></circle><circle cx="353.51351351351354" cy="86.4804469273743" r="3" fill="rgb(88, 251, 121)"><title>13055</title></circle><circle cx="366.05405405405406" cy="86.4804469273743" r="3" fill="rgb(90, 251, 119)"><title>13142</title></circle><circle cx="378.59459459459464" cy="86.4804469273743" r="3" fill="rgb(91, 252, 118)"><title>13190</title></circle><circle cx="394.27027027027026" cy="88.43575418994412" r="3" fill="rgb(93, 252, 117)"><title>13275</title></circle><circle cx="406.8108108108108" cy="90.39106145251398" r="3" fill="rgb(94, 252, 116)"><title>13326</title></circle><circle cx="419.35135135135135" cy="90.39106145251398" r="3" fill="rgb(96, 252, 114)"><title>13431</title></circle><circle cx="431.8918918918919" cy="94.30167597765363" r="3" fill="rgb(96, 252, 114)"><title>13449</title></circle><circle cx="444.43243243243245" cy="100.16759776536314" r="3" fill="rgb(100, 253, 111)"><title>13590</title></circle><circle cx="453.83783783783787" cy="107.98882681564247" r="3" fill="rgb(103, 253, 109)"><title>13726</title></circle><circle cx="466.3783783783784" cy="111.89944134078213" r="3" fill="rgb(106, 253, 106)"><title>13874</title></circle><circle cx="475.78378378378375" cy="117.76536312849163" r="3" fill="rgb(113, 254, 102)"><title>14168</title></circle><circle cx="485.1891891891892" cy="125.58659217877096" r="3" fill="rgb(116, 254, 100)"><title>14297</title></circle><circle cx="494.5945945945946" cy="133.40782122905028" r="3" fill="rgb(119, 254, 97)"><title>14441</title></circle><circle cx="507.13513513513516" cy="141.2290502793296" r="3" fill="rgb(121, 254, 96)"><title>14496</title></circle><circle cx="513.4054054054054" cy="147.09497206703912" r="3" fill="rgb(122, 254, 96)"><title>14551</title></circle><circle cx="519.6756756756757" cy="154.91620111731845" r="3" fill="rgb(125, 253, 94)"><title>14662</title></circle><circle cx="522.8108108108108" cy="160.78212290502796" r="3" fill="rgb(126, 253, 93)"><title>14697</title></circle><circle cx="529.0810810810812" cy="168.60335195530726" r="3" fill="rgb(128, 253, 92)"><title>14788</title></circle><circle cx="532.2162162162163" cy="174.4692737430168" r="3" fill="rgb(129, 253, 92)"><title>14817</title></circle><circle cx="538.4864864864866" cy="184.24581005586592" r="3" fill="rgb(131, 253, 90)"><title>14918</title></circle><circle cx="541.6216216216217" cy="192.06703910614527" r="3" fill="rgb(133, 253, 89)"><title>15009</title></circle><circle cx="541.6216216216217" cy="197.93296089385478" r="3" fill="rgb(136, 252, 87)"><title>15130</title></circle><circle cx="547.891891891892" cy="207.7094972067039" r="3" fill="rgb(139, 252, 86)"><title>15219</title></circle><circle cx="554.1621621621622" cy="215.53072625698326" r="3" fill="rgb(141, 252, 85)"><title>15310</title></circle><circle cx="554.1621621621622" cy="221.39664804469274" r="3" fill="rgb(142, 252, 84)"><title>15371</title></circle><circle cx="551.0270270270271" cy="229.21787709497204" r="3" fill="rgb(146, 251, 82)"><title>15507</title></circle><circle cx="538.4864864864866" cy="237.0391061452514" r="3" fill="rgb(155, 249, 78)"><title>15853</title></circle><circle cx="535.3513513513514" cy="244.8603351955307" r="3" fill="rgb(155, 249, 77)"><title>15879</title></circle><circle cx="532.2162162162163" cy="252.68156424581008" r="3" fill="rgb(158, 249, 76)"><title>16005</title></circle><circle cx="532.2162162162163" cy="260.5027932960894" r="3" fill="rgb(160, 248, 75)"><title>16077</title></circle><circle cx="529.0810810810812" cy="266.3687150837989" r="3" fill="rgb(162, 248, 74)"><title>16126</title></circle><circle cx="525.9459459459459" cy="276.14525139664806" r="3" fill="rgb(163, 248, 74)"><title>16174</title></circle><circle cx="522.8108108108108" cy="283.9664804469274" r="3" fill="rgb(165, 247, 73)"><title>16255</title></circle><circle cx="516.5405405405405" cy="289.8324022346369" r="3" fill="rgb(167, 247, 72)"><title>16327</title></circle><circle cx="504" cy="291.7877094972067" r="3" fill="rgb(169, 246, 71)"><title>16433</title></circle><circle cx="488.3243243243243" cy="293.74301675977654" r="3" fill="rgb(174, 244, 69)"><title>16639</title></circle><circle cx="475.78378378378375" cy="291.7877094972067" r="3" fill="rgb(179, 243, 67)"><title>16809</title></circle><circle cx="466.3783783783784" cy="282.0111731843575" r="3" fill="rgb(187, 240, 63)"><title>17174</title></circle><circle cx="453.83783783783787" cy="282.0111731843575" r="3" fill="rgb(191, 238, 62)"><title>17311</title></circle><circle cx="466.3783783783784" cy="303.5195530726257" r="3" fill="rgb(208, 230, 55)"><title>18047</title></circle><circle cx="469.5135135135135" cy="258.5474860335196" r="3" fill="rgb(216, 225, 52)"><title>18439</title></circle><circle cx="544.7567567567568" cy="276.14525139664806" r="3" fill="rgb(224, 220, 50)"><title>18810</title></circle><circle cx="519.6756756756757" cy="278.1005586592179" r="3" fill="rgb(229, 216, 48)"><title>19077</title></circle><circle cx="525.9459459459459" cy="285.92178770949715" r="3" fill="rgb(229, 215, 48)"><title>19125</title></circle><circle cx="516.5405405405405" cy="293.74301675977654" r="3" fill="rgb(233, 212, 47)"><title>19317</title></circle><circle cx="504" cy="289.8324022346369" r="3" fill="rgb(234, 211, 46)"><title>19365</title></circle><circle cx="494.5945945945946" cy="287.877094972067" r="3" fill="rgb(234, 211, 46)"><title>19389</title></circle><circle cx="497.7297297297298" cy="293.74301675977654" r="3" fill="rgb(236, 209, 46)"><title>19493</title></circle><circle cx="504" cy="299.60893854748605" r="3" fill="rgb(236, 209, 46)"><title>19509</title></circle><circle cx="507.13513513513516" cy="305.47486033519556" r="3" fill="rgb(237, 208, 45)"><title>19556</title></circle><circle cx="516.5405405405405" cy="313.29608938547483" r="3" fill="rgb(237, 208, 45)"><title>19564</title></circle><circle cx="522.8108108108108" cy="319.16201117318434" r="3" fill="rgb(237, 208, 45)"><title>19578</title></circle><circle cx="535.3513513513514" cy="328.93854748603354" r="3" fill="rgb(238, 207, 45)"><title>19618</title></circle><circle cx="579.2432432432433" cy="356.3128491620112" r="3" fill="rgb(240, 205, 44)"><title>19722</title></circle><circle cx="594.9189189189188" cy="364.1340782122905" r="3" fill="rgb(240, 205, 44)"><title>19740</title></circle><circle cx="500.86486486486484" cy="268.32402234636874" r="3" fill="rgb(246, 198, 42)"><title>20122</title></circle><circle cx="488.3243243243243" cy="262.4581005586592" r="3" fill="rgb(246, 198, 42)"><title>20148</title></circle><circle cx="488.3243243243243" cy="268.32402234636874" r="3" fill="rgb(247, 196, 42)"><title>20248</title></circle><circle cx="500.86486486486484" cy="274.18994413407825" r="3" fill="rgb(248, 195, 41)"><title>20320</title></circle><circle cx="507.13513513513516" cy="280.05586592178764" r="3" fill="rgb(248, 195, 41)"><title>20333</title></circle><circle cx="510.27027027027026" cy="287.877094972067" r="3" fill="rgb(250, 191, 41)"><title>20506</title></circle><circle cx="497.7297297297298" cy="285.92178770949715" r="3" fill="rgb(252, 188, 40)"><title>20661</title></circle><circle cx="494.5945945945946" cy="293.74301675977654" r="3" fill="rgb(254, 186, 39)"><title>20813</title></circle><circle cx="497.7297297297298" cy="301.5642458100559" r="3" fill="rgb(255, 184, 39)"><title>20907</title></circle><circle cx="500.86486486486484" cy="311.34078212290507" r="3" fill="rgb(255, 181, 38)"><title>21061</title></circle><circle cx="494.5945945945946" cy="319.16201117318434" r="3" fill="rgb(255, 178, 38)"><title>21179</title></circle><circle cx="485.1891891891892" cy="323.07262569832403" r="3" fill="rgb(255, 176, 37)"><title>21309</title></circle><circle cx="478.91891891891896" cy="332.8491620111732" r="3" fill="rgb(255, 173, 37)"><title>21443</title></circle><circle cx="472.64864864864865" cy="340.6703910614525" r="3" fill="rgb(255, 169, 36)"><title>21653</title></circle><circle cx="460.1081081081081" cy="344.5810055865922" r="3" fill="rgb(255, 165, 35)"><title>21828</title></circle><circle cx="447.56756756756755" cy="346.53631284916196" r="3" fill="rgb(255, 162, 35)"><title>21960</title></circle><circle cx="435.0270270270271" cy="344.5810055865922" r="3" fill="rgb(255, 161, 34)"><title>22021</title></circle><circle cx="419.35135135135135" cy="340.6703910614525" r="3" fill="rgb(255, 159, 34)"><title>22097</title></circle><circle cx="406.8108108108108" cy="334.804469273743" r="3" fill="rgb(255, 158, 34)"><title>22147</title></circle><circle cx="397.4054054054054" cy="336.75977653631287" r="3" fill="rgb(255, 150, 33)"><title>22516</title></circle><circle cx="400.5405405405406" cy="342.6256983240223" r="3" fill="rgb(255, 150, 33)"><title>22525</title></circle><circle cx="400.5405405405406" cy="348.49162011173183" r="3" fill="rgb(255, 149, 32)"><title>22565</title></circle><circle cx="388" cy="354.35754189944134" r="3" fill="rgb(255, 145, 32)"><title>22733</title></circle><circle cx="375.4594594594594" cy="354.35754189944134" r="3" fill="rgb(255, 143, 31)"><title>22845</title></circle><circle cx="362.9189189189189" cy="358.26815642458104" r="3" fill="rgb(255, 140, 31)"><title>22973</title></circle><circle cx="362.9189189189189" cy="364.1340782122905" r="3" fill="rgb(255, 139, 31)"><title>23035</title></circle><circle cx="350.37837837837833" cy="364.1340782122905" r="3" fill="rgb(255, 131, 30)"><title>23382</title></circle><circle cx="337.83783783783787" cy="364.1340782122905" r="3" fill="rgb(255, 127, 29)"><title>23530</title></circle><circle cx="325.2972972972973" cy="362.1787709497207" r="3" fill="rgb(255, 125, 29)"><title>23654</title></circle><circle cx="322.16216216216213" cy="370" r="3" fill="rgb(255, 120, 28)"><title>23863</title></circle><circle cx="309.62162162162167" cy="370" r="3" fill="rgb(255, 116, 27)"><title>24031</title></circle><circle cx="297.0810810810811" cy="370" r="3" fill="rgb(255, 113, 27)"><title>24167</title></circle><circle cx="284.5405405405406" cy="370" r="3" fill="rgb(254, 111, 26)"><title>24271</title></circle><circle cx="272" cy="366.08938547486036" r="3" fill="rgb(253, 108, 26)"><title>24375</title></circle><circle cx="259.4594594594595" cy="362.1787709497207" r="3" fill="rgb(252, 105, 25)"><title>24521</title></circle><circle cx="250.05405405405406" cy="362.1787709497207" r="3" fill="rgb(251, 104, 25)"><title>24575</title></circle><circle cx="237.51351351351354" cy="356.3128491620112" r="3" fill="rgb(250, 102, 25)"><title>24660</title></circle><circle cx="209.29729729729732" cy="344.5810055865922" r="3" fill="rgb(248, 99, 24)"><title>24806</title></circle><circle cx="196.75675675675677" cy="340.6703910614525" r="3" fill="rgb(248, 98, 24)"><title>24824</title></circle><circle cx="184.21621621621622" cy="330.89385474860336" r="3" fill="rgb(246, 96, 24)"><title>24940</title></circle><circle cx="187.35135135135135" cy="336.75977653631287" r="3" fill="rgb(244, 93, 23)"><title>25072</title></circle><circle cx="199.8918918918919" cy="344.5810055865922" r="3" fill="rgb(244, 92, 23)"><title>25104</title></circle><circle cx="206.1621621621622" cy="352.40223463687147" r="3" fill="rgb(242, 90, 23)"><title>25206</title></circle><circle cx="196.75675675675677" cy="352.40223463687147" r="3" fill="rgb(241, 88, 22)"><title>25272</title></circle><circle cx="184.21621621621622" cy="350.4469273743017" r="3" fill="rgb(240, 87, 22)"><title>25339</title></circle><circle cx="171.67567567567568" cy="348.49162011173183" r="3" fill="rgb(240, 86, 22)"><title>25375</title></circle><circle cx="159.13513513513513" cy="340.6703910614525" r="3" fill="rgb(239, 85, 22)"><title>25424</title></circle><circle cx="146.59459459459458" cy="338.7150837988827" r="3" fill="rgb(238, 83, 21)"><title>25497</title></circle><circle cx="137.1891891891892" cy="332.8491620111732" r="3" fill="rgb(236, 81, 21)"><title>25594</title></circle><circle cx="121.51351351351352" cy="325.02793296089385" r="3" fill="rgb(234, 78, 20)"><title>25726</title></circle><circle cx="112.1081081081081" cy="317.2067039106145" r="3" fill="rgb(233, 77, 20)"><title>25769</title></circle><circle cx="99.56756756756756" cy="309.3854748603352" r="3" fill="rgb(233, 76, 20)"><title>25817</title></circle><circle cx="93.29729729729729" cy="303.5195530726257" r="3" fill="rgb(232, 75, 20)"><title>25859</title></circle><circle cx="83.8918918918919" cy="299.60893854748605" r="3" fill="rgb(232, 75, 20)"><title>25868</title></circle><circle cx="80.75675675675677" cy="293.74301675977654" r="3" fill="rgb(231, 75, 20)"><title>25884</title></circle><circle cx="74.48648648648648" cy="287.877094972067" r="3" fill="rgb(231, 74, 19)"><title>25917</title></circle><circle cx="58.81081081081081" cy="274.18994413407825" r="3" fill="rgb(229, 72, 19)"><title>26028</title></circle><circle cx="49.4054054054054" cy="266.3687150837989" r="3" fill="rgb(229, 72, 19)"><title>26042</title></circle><circle cx="49.4054054054054" cy="258.5474860335196" r="3" fill="rgb(226, 69, 18)"><title>26185</title></circle><circle cx="49.4054054054054" cy="250.72625698324026" r="3" fill="rgb(225, 67, 18)"><title>26241</title></circle><circle cx="49.4054054054054" cy="244.8603351955307" r="3" fill="rgb(224, 67, 18)"><title>26257</title></circle><circle cx="46.27027027027027" cy="235.08379888268155" r="3" fill="rgb(224, 66, 18)"><title>26299</title></circle><circle cx="46.27027027027027" cy="227.2625698324022" r="3" fill="rgb(221, 64, 17)"><title>26427</title></circle><circle cx="43.135135135135144" cy="221.39664804469274" r="3" fill="rgb(221, 63, 17)"><title>26441</title></circle><circle cx="43.135135135135144" cy="211.62011173184356" r="3" fill="rgb(220, 62, 17)"><title>26497</title></circle><circle cx="43.135135135135144" cy="203.79888268156427" r="3" fill="rgb(217, 59, 16)"><title>26641</title></circle><circle cx="43.135135135135144" cy="197.93296089385478" r="3" fill="rgb(216, 58, 16)"><title>26686</title></circle><circle cx="43.135135135135144" cy="190.11173184357543" r="3" fill="rgb(215, 57, 15)"><title>26761</title></circle><circle cx="40" cy="180.33519553072622" r="3" fill="rgb(213, 56, 15)"><title>26834</title></circle><circle cx="40" cy="172.51396648044692" r="3" fill="rgb(211, 54, 15)"><title>26914</title></circle><circle cx="40" cy="164.6927374301676" r="3" fill="rgb(210, 53, 14)"><title>26978</title></circle><circle cx="40" cy="158.8268156424581" r="3" fill="rgb(209, 52, 14)"><title>27026</title></circle><circle cx="40" cy="149.05027932960897" r="3" fill="rgb(208, 51, 14)"><title>27090</title></circle><circle cx="40" cy="141.2290502793296" r="3" fill="rgb(207, 50, 14)"><title>27138</title></circle><circle cx="43.135135135135144" cy="131.45251396648047" r="3" fill="rgb(205, 48, 13)"><title>27241</title></circle><circle cx="49.4054054054054" cy="123.6312849162011" r="3" fill="rgb(204, 47, 13)"><title>27274</title></circle><circle cx="55.67567567567568" cy="113.85474860335196" r="3" fill="rgb(202, 46, 12)"><title>27372</title></circle><circle cx="61.945945945945944" cy="104.07821229050279" r="3" fill="rgb(200, 44, 12)"><title>27466</title></circle><circle cx="65.0810810810811" cy="96.25698324022348" r="3" fill="rgb(198, 43, 11)"><title>27541</title></circle><circle cx="68.21621621621622" cy="88.43575418994412" r="3" fill="rgb(196, 41, 11)"><title>27626</title></circle><circle cx="68.21621621621622" cy="82.56983240223465" r="3" fill="rgb(195, 40, 11)"><title>27676</title></circle><circle cx="71.35135135135135" cy="74.7486033519553" r="3" fill="rgb(194, 39, 10)"><title>27738</title></circle><circle cx="83.8918918918919" cy="68.88268156424581" r="3" fill="rgb(191, 37, 10)"><title>27858</title></circle><circle cx="96.43243243243244" cy="64.97206703910615" r="3" fill="rgb(188, 35, 9)"><title>28018</title></circle><circle cx="108.97297297297298" cy="64.97206703910615" r="3" fill="rgb(185, 33, 8)"><title>28147</title></circle><circle cx="121.51351351351352" cy="59.10614525139665" r="3" fill="rgb(183, 32, 8)"><title>28235</title></circle><circle cx="134.05405405405406" cy="53.24022346368713" r="3" fill="rgb(181, 30, 7)"><title>28331</title></circle><circle cx="146.59459459459458" cy="41.50837988826815" r="3" fill="rgb(178, 28, 6)"><title>28486</title></circle><circle cx="149.72972972972974" cy="33.68715083798883" r="3" fill="rgb(178, 28, 6)"><title>28496</title></circle><circle cx="156" cy="23.910614525139664" r="3" fill="rgb(176, 27, 6)"><title>28571</title></circle><circle cx="168.54054054054055" cy="21.95530726256985" r="3" fill="rgb(174, 26, 5)"><title>28667</title></circle><circle cx="181.0810810810811" cy="23.910614525139664" r="3" fill="rgb(172, 24, 5)"><title>28772</title></circle><circle cx="193.62162162162164" cy="27.82122905027932" r="3" fill="rgb(170, 23, 4)"><title>28884</title></circle><circle cx="209.29729729729732" cy="29.77653631284917" r="3" fill="rgb(169, 22, 4)"><title>28957</title></circle><circle cx="221.83783783783784" cy="27.82122905027932" r="3" fill="rgb(165, 20, 3)"><title>29147</title></circle><circle cx="234.3783783783784" cy="21.95530726256985" r="3" fill="rgb(163, 19, 2)"><title>29301</title></circle><circle cx="246.91891891891893" cy="20" r="3" fill="rgb(161, 18, 1)"><title>29405</title></circle><circle cx="259.4594594594595" cy="20" r="3" fill="rgb(160, 17, 1)"><title>29469</title></circle><circle cx="272" cy="21.95530726256985" r="3" fill="rgb(158, 16, 1)"><title>29554</title></circle><circle cx="284.5405405405406" cy="21.95530726256985" r="3" fill="rgb(158, 16, 0)"><title>29602</title></circle><circle cx="297.0810810810811" cy="23.910614525139664" r="3" fill="rgb(156, 15, 0)"><title>29706</title></circle><circle cx="309.62162162162167" cy="21.95530726256985" r="3" fill="rgb(156, 15, 0)"><title>29723</title></circle><circle cx="322.16216216216213" cy="23.910614525139664" r="3" fill="rgb(155, 15, 0)"><title>29781</title></circle><circle cx="334.7027027027027" cy="21.95530726256985" r="3" fill="rgb(154, 14, 0)"><title>29861</title></circle><circle cx="350.37837837837833" cy="23.910614525139664" r="3" fill="rgb(153, 14, 0)"><title>29933</title></circle><circle cx="362.9189189189189" cy="23.910614525139664" r="3" fill="rgb(152, 14, 0)"><title>29997</title></circle><circle cx="375.4594594594594" cy="23.910614525139664" r="3" fill="rgb(151, 13, 0)"><title>30061</title></circle><circle cx="388" cy="29.77653631284917" r="3" fill="rgb(150, 13, 0)"><title>30133</title></circle><circle cx="400.5405405405406" cy="31.731843575418985" r="3" fill="rgb(150, 13, 0)"><title>30181</title></circle><circle cx="416.21621621621625" cy="35.64245810055864" r="3" fill="rgb(149, 12, 0)"><title>30232</title></circle><circle cx="428.7567567567568" cy="39.55307262569834" r="3" fill="rgb(149, 12, 0)"><title>30262</title></circle><circle cx="438.16216216216213" cy="43.463687150838" r="3" fill="rgb(149, 12, 0)"><title>30286</title></circle><circle cx="453.83783783783787" cy="47.37430167597766" r="3" fill="rgb(148, 12, 0)"><title>30365</title></circle><circle cx="466.3783783783784" cy="43.463687150838" r="3" fill="rgb(147, 12, 0)"><title>30510</title></circle><circle cx="478.91891891891896" cy="45.418994413407816" r="3" fill="rgb(146, 12, 0)"><title>30582</title></circle><circle cx="494.5945945945946" cy="49.32960893854747" r="3" fill="rgb(146, 12, 0)"><title>30654</title></circle><circle cx="510.27027027027026" cy="55.19553072625699" r="3" fill="rgb(145, 11, 0)"><title>30711</title></circle><circle cx="525.9459459459459" cy="63.016759776536304" r="3" fill="rgb(145, 11, 0)"><title>30759</title></circle><circle cx="538.4864864864866" cy="70.83798882681563" r="3" fill="rgb(145, 11, 0)"><title>30790</title></circle><circle cx="551.0270270270271" cy="78.65921787709499" r="3" fill="rgb(145, 12, 0)"><title>30846</title></circle><circle cx="582.3783783783783" cy="94.30167597765363" r="3" fill="rgb(144, 12, 0)"><title>30948</title></circle><circle cx="598.0540540540541" cy="104.07821229050279" r="3" fill="rgb(144, 12, 0)"><title>30966</title></circle><circle cx="604.3243243243243" cy="109.94413407821227" r="3" fill="rgb(144, 12, 0)"><title>30992</title></circle><circle cx="607.4594594594595" cy="115.81005586592178" r="3" fill="rgb(144, 12, 0)"><title>31032</title></circle><circle cx="616.8648648648649" cy="123.6312849162011" r="3" fill="rgb(144, 12, 0)"><title>31135</title></circle><circle cx="620" cy="129.49720670391062" r="3" fill="rgb(144, 12, 0)"><title>31224</title></circle></g></svg>