<svg class="plot" fill="currentColor" text-anchor="middle" width="640" height="400" viewBox="0 0 640 400" xmlns="http://www.w3.org/2000/svg" xmlns:xlink="http://www.w3.org/1999/xlink"><g transform="translate(40,0)" fill="none" text-anchor="end"><g class="tick" opacity="1" transform="translate(0,370)"><line stroke="currentColor" x2="-6"/><line stroke="currentColor" x2="580" stroke-opacity="0.1"/><text fill="currentColor" x="-9" dy="0.32em">20</text></g><g class="tick" opacity="1" transform="translate(0,338.03652968036533)"><line stroke="currentColor" x2="-6"/><line stroke="currentColor" x2="580" stroke-opacity="0.1"/><text fill="currentColor" x="-9" dy="0.32em">40</text></g><g class="tick" opacity="1" transform="translate(0,306.0730593607306)"><line stroke="currentColor" x2="-6"/><line stroke="currentColor" x2="580" stroke-opacity="0.1"/><text fill="currentColor" x="-9" dy="0.32em">60</text></g><g class="tick" opacity="1" transform="translate(0,274.1095890410959)"><line stroke="currentColor" x2="-6"/><line stroke="currentColor" x2="580" stroke-opacity="0.1"/><text fill="currentColor" x="-9" dy="0.32em">80</text></g><g class="tick" opacity="1" transform="translate(0,242.1461187214612)"><line stroke="currentColor" x2="-6"/><line stroke="currentColor" x2="580" stroke-opacity="0.1"/><text fill="currentColor" x="-9" dy="0.32em">100</text></g><g class="tick" opacity="1" transform="translate(0,210.1826484018265)"><line stroke="currentColor" x2="-6"/><line stroke="currentColor" x2="580" stroke-opacity="0.1"/><text fill="currentColor" x="-9" dy="0.32em">120</text></g><g class="tick" opacity="1" transform="translate(0,178.2191780821918)"><line stroke="currentColor" x2="-6"/><line stroke="currentColor" x2="580" stroke-opacity="0.1"/><text fill="currentColor" x="-9" dy="0.32em">140</text></g><g class="tick" opacity="1" transform="translate(0,146.25570776255708)"><line stroke="currentColor" x2="-6"/><line stroke="currentColor" x2="580" stroke-opacity="0.1"/><text fill="currentColor" x="-9" dy="0.32em">160</text></g><g class="tick" opacity="1" transform="translate(0,114.29223744292239)"><line stroke="currentColor" x2="-6"/><line stroke="currentColor" x2="580" stroke-opacity="0.1"/><text fill="currentColor" x="-9" dy="0.32em">180</text></g><g class="tick" opacity="1" transform="translate(0,82.32876712328769)"><line stroke="currentColor" x2="-6"/><line stroke="currentColor" x2="580" stroke-opacity="0.1"/><text fill="currentColor" x="-9" dy="0.32em">200</text></g><g class="tick" opacity="1" transform="translate(0,50.36529680365298)"><line stroke="currentColor" x2="-6"/><line stroke="currentColor" x2="580" stroke-opacity="0.1"/><text fill="currentColor" x="-9" dy="0.32em">220</text></g><text fill="currentColor" transform="translate(-40,20)" dy="-1em" text-anchor="start">↑ Y</text></g><g transform="translate(0,370)" fill="none" text-anchor="middle"><g class="tick" opacity="1" transform="translate(71.9,0)"><line stroke="currentColor" y2="6"/><line stroke="currentColor" y2="-350" stroke-opacity="0.1"/><text fill="currentColor" y="9" dy="0.71em">40</text></g><g class="tick" opacity="1" transform="translate(129.89999999999998,0)"><line stroke="currentColor" y2="6"/><line stroke="currentColor" y2="-350" stroke-opacity="0.1"/><text fill="currentColor" y="9" dy="0.71em">60</text></g><g class="tick" opacity="1" transform="translate(187.9,0)"><line stroke="currentColor" y2="6"/><line stroke="currentColor" y2="-350" stroke-opacity="0.1"/><text fill="currentColor" y="9" dy="0.71em">80</text></g><g class="tick" opacity="1" transform="translate(245.9,0)"><line stroke="currentColor" y2="6"/><line stroke="currentColor" y2="-350" stroke-opacity="0.1"/><text fill="currentColor" y="9" dy="0.71em">100</text></g><g class="tick" opacity="1" transform="translate(303.90000000000003,0)"><line stroke="currentColor" y2="6"/><line stroke="currentColor" y2="-350" stroke-opacity="0.1"/><text fill="currentColor" y="9" dy="0.71em">120</text></g><g class="tick" opacity="1" transform="translate(361.90000000000003,0)"><line stroke="currentColor" y2="6"/><line stroke="currentColor" y2="-350" stroke-opacity="0.1"/><text fill="currentColor" y="9" dy="0.71em">140</text></g><g class="tick" opacity="1" transform="translate(419.90000000000003,0)"><line stroke="currentColor" y2="6"/><line stroke="currentColor" y2="-350" stroke-opacity="0.1"/><text fill="currentColor" y="9" dy="0.71em">160</text></g><g class="tick" opacity="1" transform="translate(477.90000000000003,0)"><line stroke="currentColor" y2="6"/><line stroke="currentColor" y2="-350" stroke-opacity="0.1"/><text fill="currentColor" y="9" dy="0.71em">180</text></g><g class="tick" opacity="1" transform="translate(535.9,0)"><line stroke="currentColor" y2="6"/><line stroke="currentColor" y2="-350" stroke-opacity="0.1"/><text fill="currentColor" y="9" dy="0.71em">200</text></g><g class="tick" opacity="1" transform="translate(593.9,0)"><line stroke="currentColor" y2="6"/><line stroke="currentColor" y2="-350" stroke-opacity="0.1"/><text fill="currentColor" y="9" dy="0.71em">220</text></g><text fill="currentColor" transform="translate(640,30)" dy="-0.32em" text-anchor="end">X →</text></g><g><circle cx="266.2" cy="200.59360730593608" r="3" fill="rgb(35, 23, 27)"><title>0</title></circle><circle cx="272" cy="206.986301369863" r="3" fill="rgb(42, 27, 48)"><title>152</title></circle><circle cx="272" cy="213.37899543378995" r="3" fill="rgb(50, 32, 73)"><title>344</title></circle><circle cx="263.3" cy="218.17351598173514" r="3" fill="rgb(58, 38, 99)"><title>570</title></circle><circle cx="251.7" cy="218.17351598173514" r="3" fill="rgb(63, 44, 121)"><title>772</title></circle><circle cx="240.09999999999997" cy="211.7808219178082" r="3" fill="rgb(67, 48, 134)"><title>911</title></circle><circle cx="231.40000000000003" cy="205.38812785388126" r="3" fill="rgb(69, 51, 146)"><title>1040</title></circle><circle cx="225.6" cy="198.99543378995432" r="3" fill="rgb(71, 55, 155)"><title>1151</title></circle><circle cx="222.70000000000002" cy="194.20091324200914" r="3" fill="rgb(71, 57, 160)"><title>1217</title></circle><circle cx="222.70000000000002" cy="187.8082191780822" r="3" fill="rgb(73, 60, 170)"><title>1337</title></circle><circle cx="222.70000000000002" cy="183.013698630137" r="3" fill="rgb(73, 62, 174)"><title>1401</title></circle><circle cx="225.6" cy="176.62100456621005" r="3" fill="rgb(74, 66, 184)"><title>1537</title></circle><circle cx="228.5" cy="168.6301369863014" r="3" fill="rgb(75, 71, 194)"><title>1705</title></circle><circle cx="240.09999999999997" cy="163.83561643835617" r="3" fill="rgb(75, 79, 208)"><title>1969</title></circle><circle cx="251.7" cy="160.63926940639269" r="3" fill="rgb(74, 85, 217)"><title>2153</title></circle><circle cx="263.3" cy="159.04109589041096" r="3" fill="rgb(73, 88, 221)"><title>2250</title></circle><circle cx="274.90000000000003" cy="160.63926940639269" r="3" fill="rgb(73, 90, 224)"><title>2330</title></circle><circle cx="283.59999999999997" cy="162.23744292237444" r="3" fill="rgb(73, 92, 226)"><title>2378</title></circle><circle cx="295.2" cy="163.83561643835617" r="3" fill="rgb(72, 94, 228)"><title>2450</title></circle><circle cx="306.8" cy="167.03196347031962" r="3" fill="rgb(71, 97, 231)"><title>2531</title></circle><circle cx="318.4" cy="170.2283105022831" r="3" fill="rgb(71, 99, 233)"><title>2603</title></circle><circle cx="330" cy="176.62100456621005" r="3" fill="rgb(70, 103, 236)"><title>2718</title></circle><circle cx="341.6" cy="178.2191780821918" r="3" fill="rgb(66, 112, 242)"><title>3022</title></circle><circle cx="353.2" cy="184.61187214611874" r="3" fill="rgb(65, 115, 244)"><title>3106</title></circle><circle cx="364.80000000000007" cy="189.40639269406392" r="3" fill="rgb(63, 119, 246)"><title>3238</title></circle><circle cx="373.5" cy="195.79908675799092" r="3" fill="rgb(62, 122, 247)"><title>3322</title></circle><circle cx="376.4" cy="202.19178082191786" r="3" fill="rgb(61, 124, 247)"><title>3410</title></circle><circle cx="379.3" cy="208.5844748858448" r="3" fill="rgb(60, 127, 248)"><title>3482</title></circle><circle cx="379.3" cy="213.37899543378995" r="3" fill="rgb(59, 128, 248)"><title>3531</title></circle><circle cx="379.3" cy="219.7716894977169" r="3" fill="rgb(59, 130, 248)"><title>3594</title></circle><circle cx="376.4" cy="227.7625570776256" r="3" fill="rgb(58, 133, 249)"><title>3675</title></circle><circle cx="373.5" cy="234.15525114155253" r="3" fill="rgb(56, 136, 249)"><title>3779</title></circle><circle cx="364.80000000000007" cy="240.54794520547946" r="3" fill="rgb(55, 138, 249)"><title>3867</title></circle><circle cx="353.2" cy="245.34246575342465" r="3" fill="rgb(54, 141, 249)"><title>3949</title></circle><circle cx="344.5" cy="251.73515981735162" r="3" fill="rgb(53, 144, 248)"><title>4035</title></circle><circle cx="338.7" cy="256.52968036529677" r="3" fill="rgb(52, 145, 248)"><title>4083</title></circle><circle cx="327.09999999999997" cy="262.9223744292237" r="3" fill="rgb(50, 150, 247)"><title>4254</title></circle><circle cx="315.5" cy="267.7168949771689" r="3" fill="rgb(48, 154, 246)"><title>4374</title></circle><circle cx="306.8" cy="275.7077625570776" r="3" fill="rgb(47, 156, 245)"><title>4452</title></circle><circle cx="295.2" cy="280.5022831050228" r="3" fill="rgb(47, 158, 245)"><title>4523</title></circle><circle cx="283.59999999999997" cy="282.1004566210046" r="3" fill="rgb(46, 161, 243)"><title>4612</title></circle><circle cx="272" cy="283.69863013698625" r="3" fill="rgb(45, 164, 242)"><title>4717</title></circle><circle cx="260.4" cy="282.1004566210046" r="3" fill="rgb(44, 166, 241)"><title>4813</title></circle><circle cx="248.79999999999998" cy="280.5022831050228" r="3" fill="rgb(43, 168, 240)"><title>4877</title></circle><circle cx="237.20000000000002" cy="277.30593607305934" r="3" fill="rgb(42, 172, 237)"><title>5014</title></circle><circle cx="228.5" cy="277.30593607305934" r="3" fill="rgb(41, 174, 236)"><title>5071</title></circle><circle cx="216.9" cy="272.51141552511416" r="3" fill="rgb(41, 176, 235)"><title>5158</title></circle><circle cx="208.2" cy="267.7168949771689" r="3" fill="rgb(40, 178, 233)"><title>5226</title></circle><circle cx="196.6" cy="262.9223744292237" r="3" fill="rgb(39, 181, 231)"><title>5344</title></circle><circle cx="179.2" cy="256.52968036529677" r="3" fill="rgb(38, 186, 227)"><title>5512</title></circle><circle cx="170.5" cy="253.33333333333334" r="3" fill="rgb(37, 193, 221)"><title>5785</title></circle><circle cx="158.9" cy="246.9406392694064" r="3" fill="rgb(37, 195, 219)"><title>5880</title></circle><circle cx="147.3" cy="242.1461187214612" r="3" fill="rgb(37, 196, 217)"><title>5936</title></circle><circle cx="141.5" cy="237.35159817351598" r="3" fill="rgb(37, 197, 216)"><title>5977</title></circle><circle cx="129.89999999999998" cy="232.55707762557077" r="3" fill="rgb(37, 199, 214)"><title>6049</title></circle><circle cx="121.20000000000002" cy="224.56621004566207" r="3" fill="rgb(37, 201, 213)"><title>6105</title></circle><circle cx="112.5" cy="216.57534246575344" r="3" fill="rgb(37, 202, 211)"><title>6168</title></circle><circle cx="109.6" cy="210.1826484018265" r="3" fill="rgb(37, 203, 210)"><title>6220</title></circle><circle cx="103.80000000000001" cy="203.78995433789956" r="3" fill="rgb(37, 204, 209)"><title>6272</title></circle><circle cx="103.80000000000001" cy="197.39726027397262" r="3" fill="rgb(37, 206, 207)"><title>6322</title></circle><circle cx="103.80000000000001" cy="192.60273972602738" r="3" fill="rgb(37, 206, 207)"><title>6346</title></circle><circle cx="103.80000000000001" cy="184.61187214611874" r="3" fill="rgb(37, 207, 205)"><title>6401</title></circle><circle cx="103.80000000000001" cy="178.2191780821918" r="3" fill="rgb(38, 210, 202)"><title>6497</title></circle><circle cx="109.6" cy="168.6301369863014" r="3" fill="rgb(38, 213, 198)"><title>6641</title></circle><circle cx="112.5" cy="162.23744292237444" r="3" fill="rgb(39, 215, 196)"><title>6730</title></circle><circle cx="115.4" cy="154.24657534246575" r="3" fill="rgb(39, 216, 194)"><title>6802</title></circle><circle cx="121.20000000000002" cy="146.25570776255708" r="3" fill="rgb(40, 218, 192)"><title>6874</title></circle><circle cx="129.89999999999998" cy="139.86301369863014" r="3" fill="rgb(41, 219, 189)"><title>6955</title></circle><circle cx="138.6" cy="133.4703196347032" r="3" fill="rgb(41, 220, 188)"><title>7018</title></circle><circle cx="150.2" cy="128.675799086758" r="3" fill="rgb(42, 222, 185)"><title>7115</title></circle><circle cx="161.79999999999998" cy="125.47945205479452" r="3" fill="rgb(44, 225, 180)"><title>7275</title></circle><circle cx="170.5" cy="119.08675799086757" r="3" fill="rgb(46, 228, 176)"><title>7411</title></circle><circle cx="182.1" cy="115.8904109589041" r="3" fill="rgb(48, 231, 171)"><title>7604</title></circle><circle cx="193.70000000000002" cy="111.09589041095893" r="3" fill="rgb(49, 232, 168)"><title>7691</title></circle><circle cx="205.29999999999998" cy="107.89954337899545" r="3" fill="rgb(51, 234, 165)"><title>7783</title></circle><circle cx="216.9" cy="106.30136986301369" r="3" fill="rgb(52, 235, 164)"><title>7843</title></circle><circle cx="231.40000000000003" cy="103.10502283105022" r="3" fill="rgb(53, 236, 162)"><title>7907</title></circle><circle cx="243" cy="99.90867579908675" r="3" fill="rgb(54, 237, 160)"><title>7980</title></circle><circle cx="254.6" cy="98.31050228310504" r="3" fill="rgb(56, 238, 157)"><title>8059</title></circle><circle cx="266.2" cy="95.11415525114157" r="3" fill="rgb(57, 239, 155)"><title>8124</title></circle><circle cx="277.8" cy="93.51598173515981" r="3" fill="rgb(58, 240, 154)"><title>8181</title></circle><circle cx="286.5" cy="90.31963470319634" r="3" fill="rgb(59, 240, 153)"><title>8221</title></circle><circle cx="298.09999999999997" cy="91.9178082191781" r="3" fill="rgb(61, 241, 150)"><title>8301</title></circle><circle cx="309.7" cy="91.9178082191781" r="3" fill="rgb(62, 242, 148)"><title>8389</title></circle><circle cx="321.3" cy="91.9178082191781" r="3" fill="rgb(64, 243, 146)"><title>8452</title></circle><circle cx="332.90000000000003" cy="93.51598173515981" r="3" fill="rgb(65, 244, 145)"><title>8501</title></circle><circle cx="344.5" cy="95.11415525114157" r="3" fill="rgb(66, 244, 143)"><title>8548</title></circle><circle cx="353.2" cy="95.11415525114157" r="3" fill="rgb(67, 244, 142)"><title>8582</title></circle><circle cx="364.80000000000007" cy="98.31050228310504" r="3" fill="rgb(68, 245, 141)"><title>8629</title></circle><circle cx="376.4" cy="103.10502283105022" r="3" fill="rgb(70, 246, 139)"><title>8702</title></circle><circle cx="388" cy="106.30136986301369" r="3" fill="rgb(71, 246, 137)"><title>8773</title></circle><circle cx="408.3" cy="111.09589041095893" r="3" fill="rgb(75, 248, 134)"><title>8904</title></circle><circle cx="414.1" cy="115.8904109589041" r="3" fill="rgb(76, 248, 133)"><title>8942</title></circle><circle cx="425.7" cy="120.68493150684932" r="3" fill="rgb(77, 248, 131)"><title>9002</title></circle><circle cx="437.30000000000007" cy="127.07762557077626" r="3" fill="rgb(79, 249, 130)"><title>9053</title></circle><circle cx="448.9" cy="133.4703196347032" r="3" fill="rgb(80, 249, 128)"><title>9118</title></circle><circle cx="457.59999999999997" cy="139.86301369863014" r="3" fill="rgb(82, 250, 126)"><title>9189</title></circle><circle cx="469.2" cy="146.25570776255708" r="3" fill="rgb(84, 250, 124)"><title>9261</title></circle><circle cx="475" cy="154.24657534246575" r="3" fill="rgb(86, 251, 123)"><title>9318</title></circle><circle cx="483.7" cy="160.63926940639269" r="3" fill="rgb(88, 251, 121)"><title>9382</title></circle><circle cx="489.5" cy="167.03196347031962" r="3" fill="rgb(90, 251, 119)"><title>9446</title></circle><circle cx="489.5" cy="175.02283105022832" r="3" fill="rgb(93, 252, 117)"><title>9551</title></circle><circle cx="492.40000000000003" cy="181.41552511415526" r="3" fill="rgb(95, 252, 115)"><title>9623</title></circle><circle cx="489.5" cy="186.21004566210044" r="3" fill="rgb(96, 252, 114)"><title>9671</title></circle><circle cx="489.5" cy="192.60273972602738" r="3" fill="rgb(100, 253, 111)"><title>9775</title></circle><circle cx="486.6" cy="198.99543378995432" r="3" fill="rgb(102, 253, 110)"><title>9839</title></circle><circle cx="483.7" cy="205.38812785388126" r="3" fill="rgb(105, 253, 108)"><title>9929</title></circle><circle cx="480.8" cy="216.57534246575344" r="3" fill="rgb(108, 253, 105)"><title>10050</title></circle><circle cx="483.7" cy="224.56621004566207" r="3" fill="rgb(110, 254, 104)"><title>10087</title></circle><circle cx="483.7" cy="230.95890410958904" r="3" fill="rgb(111, 254, 103)"><title>10134</title></circle><circle cx="483.7" cy="235.75342465753425" r="3" fill="rgb(112, 254, 102)"><title>10159</title></circle><circle cx="483.7" cy="243.74429223744292" r="3" fill="rgb(114, 254, 101)"><title>10222</title></circle><circle cx="483.7" cy="251.73515981735162" r="3" fill="rgb(116, 254, 99)"><title>10288</title></circle><circle cx="480.8" cy="258.12785388127855" r="3" fill="rgb(118, 254, 98)"><title>10343</title></circle><circle cx="477.90000000000003" cy="262.9223744292237" r="3" fill="rgb(119, 254, 97)"><title>10376</title></circle><circle cx="475" cy="267.7168949771689" r="3" fill="rgb(120, 254, 97)"><title>10408</title></circle><circle cx="463.4" cy="274.1095890410959" r="3" fill="rgb(123, 253, 95)"><title>10496</title></circle><circle cx="454.69999999999993" cy="278.9041095890411" r="3" fill="rgb(125, 253, 94)"><title>10560</title></circle><circle cx="440.19999999999993" cy="285.29680365296804" r="3" fill="rgb(128, 253, 92)"><title>10623</title></circle><circle cx="428.6" cy="288.4931506849315" r="3" fill="rgb(129, 253, 91)"><title>10672</title></circle><circle cx="417" cy="291.689497716895" r="3" fill="rgb(131, 253, 90)"><title>10719</title></circle><circle cx="411.2" cy="296.4840182648402" r="3" fill="rgb(132, 253, 90)"><title>10752</title></circle><circle cx="396.7" cy="301.27853881278537" r="3" fill="rgb(134, 253, 88)"><title>10815</title></circle><circle cx="388" cy="307.67123287671234" r="3" fill="rgb(136, 252, 87)"><title>10872</title></circle><circle cx="379.3" cy="314.06392694063925" r="3" fill="rgb(139, 252, 86)"><title>10943</title></circle><circle cx="370.59999999999997" cy="320.4566210045662" r="3" fill="rgb(141, 252, 84)"><title>11016</title></circle><circle cx="359" cy="326.8493150684931" r="3" fill="rgb(144, 251, 83)"><title>11106</title></circle><circle cx="344.5" cy="330.04566210045664" r="3" fill="rgb(147, 251, 81)"><title>11191</title></circle><circle cx="332.90000000000003" cy="331.64383561643837" r="3" fill="rgb(149, 250, 80)"><title>11249</title></circle><circle cx="321.3" cy="331.64383561643837" r="3" fill="rgb(153, 250, 78)"><title>11353</title></circle><circle cx="309.7" cy="333.2420091324201" r="3" fill="rgb(157, 249, 76)"><title>11475</title></circle><circle cx="295.2" cy="333.2420091324201" r="3" fill="rgb(160, 248, 75)"><title>11548</title></circle><circle cx="283.59999999999997" cy="333.2420091324201" r="3" fill="rgb(162, 248, 74)"><title>11604</title></circle><circle cx="269.1" cy="334.8401826484018" r="3" fill="rgb(166, 247, 72)"><title>11716</title></circle><circle cx="257.5" cy="334.8401826484018" r="3" fill="rgb(169, 246, 71)"><title>11820</title></circle><circle cx="245.9" cy="333.2420091324201" r="3" fill="rgb(173, 245, 69)"><title>11925</title></circle><circle cx="234.3" cy="331.64383561643837" r="3" fill="rgb(175, 244, 68)"><title>11980</title></circle><circle cx="222.70000000000002" cy="330.04566210045664" r="3" fill="rgb(177, 244, 68)"><title>12029</title></circle><circle cx="208.2" cy="328.4474885844749" r="3" fill="rgb(179, 243, 67)"><title>12086</title></circle><circle cx="196.6" cy="328.4474885844749" r="3" fill="rgb(181, 242, 66)"><title>12149</title></circle><circle cx="187.9" cy="326.8493150684931" r="3" fill="rgb(182, 242, 65)"><title>12182</title></circle><circle cx="173.4" cy="322.05479452054794" r="3" fill="rgb(184, 241, 65)"><title>12241</title></circle><circle cx="147.3" cy="315.66210045662103" r="3" fill="rgb(187, 240, 63)"><title>12328</title></circle><circle cx="135.70000000000002" cy="309.26940639269407" r="3" fill="rgb(188, 239, 63)"><title>12365</title></circle><circle cx="124.1" cy="307.67123287671234" r="3" fill="rgb(190, 239, 62)"><title>12413</title></circle><circle cx="115.4" cy="304.4748858447489" r="3" fill="rgb(190, 238, 62)"><title>12438</title></circle><circle cx="106.69999999999999" cy="299.6803652968037" r="3" fill="rgb(192, 238, 61)"><title>12477</title></circle><circle cx="92.19999999999999" cy="291.689497716895" r="3" fill="rgb(193, 237, 61)"><title>12528</title></circle><circle cx="83.5" cy="288.4931506849315" r="3" fill="rgb(195, 236, 60)"><title>12582</title></circle><circle cx="77.70000000000002" cy="283.69863013698625" r="3" fill="rgb(197, 236, 60)"><title>12622</title></circle><circle cx="69" cy="277.30593607305934" r="3" fill="rgb(199, 234, 59)"><title>12701</title></circle><circle cx="66.1" cy="270.91324200913243" r="3" fill="rgb(203, 232, 57)"><title>12830</title></circle><circle cx="63.2" cy="266.11872146118725" r="3" fill="rgb(204, 232, 57)"><title>12871</title></circle><circle cx="63.2" cy="259.7260273972603" r="3" fill="rgb(207, 230, 56)"><title>12951</title></circle><circle cx="60.300000000000004" cy="251.73515981735162" r="3" fill="rgb(209, 229, 55)"><title>13014</title></circle><circle cx="60.300000000000004" cy="243.74429223744292" r="3" fill="rgb(210, 229, 55)"><title>13055</title></circle><circle cx="57.39999999999999" cy="237.35159817351598" r="3" fill="rgb(211, 228, 54)"><title>13094</title></circle><circle cx="57.39999999999999" cy="230.95890410958904" r="3" fill="rgb(215, 226, 53)"><title>13207</title></circle><circle cx="54.5" cy="224.56621004566207" r="3" fill="rgb(217, 224, 52)"><title>13295</title></circle><circle cx="54.5" cy="218.17351598173514" r="3" fill="rgb(220, 222, 51)"><title>13390</title></circle><circle cx="54.5" cy="210.1826484018265" r="3" fill="rgb(222, 221, 50)"><title>13473</title></circle><circle cx="54.5" cy="203.78995433789956" r="3" fill="rgb(224, 219, 50)"><title>13542</title></circle><circle cx="66.1" cy="203.78995433789956" r="3" fill="rgb(227, 217, 49)"><title>13662</title></circle><circle cx="71.9" cy="210.1826484018265" r="3" fill="rgb(228, 216, 48)"><title>13687</title></circle><circle cx="74.79999999999998" cy="214.97716894977174" r="3" fill="rgb(228, 216, 48)"><title>13697</title></circle><circle cx="77.70000000000002" cy="219.7716894977169" r="3" fill="rgb(229, 216, 48)"><title>13719</title></circle><circle cx="77.70000000000002" cy="226.16438356164383" r="3" fill="rgb(229, 215, 48)"><title>13734</title></circle><circle cx="74.79999999999998" cy="230.95890410958904" r="3" fill="rgb(230, 215, 48)"><title>13751</title></circle><circle cx="74.79999999999998" cy="238.9497716894977" r="3" fill="rgb(230, 214, 48)"><title>13783</title></circle><circle cx="74.79999999999998" cy="243.74429223744292" r="3" fill="rgb(231, 214, 47)"><title>13799</title></circle><circle cx="77.70000000000002" cy="250.13698630136986" r="3" fill="rgb(232, 213, 47)"><title>13846</title></circle><circle cx="63.2" cy="246.9406392694064" r="3" fill="rgb(235, 210, 46)"><title>13958</title></circle><circle cx="57.39999999999999" cy="238.9497716894977" r="3" fill="rgb(236, 209, 46)"><title>14007</title></circle><circle cx="54.5" cy="232.55707762557077" r="3" fill="rgb(236, 209, 46)"><title>14038</title></circle><circle cx="51.6" cy="227.7625570776256" r="3" fill="rgb(237, 208, 45)"><title>14055</title></circle><circle cx="48.699999999999996" cy="219.7716894977169" r="3" fill="rgb(238, 207, 45)"><title>14095</title></circle><circle cx="45.800000000000004" cy="214.97716894977174" r="3" fill="rgb(238, 207, 45)"><title>14111</title></circle><circle cx="45.800000000000004" cy="208.5844748858448" r="3" fill="rgb(238, 207, 45)"><title>14126</title></circle><circle cx="45.800000000000004" cy="202.19178082191786" r="3" fill="rgb(239, 206, 45)"><title>14143</title></circle><circle cx="42.9" cy="195.79908675799092" r="3" fill="rgb(239, 206, 45)"><title>14159</title></circle><circle cx="40" cy="187.8082191780822" r="3" fill="rgb(240, 205, 44)"><title>14174</title></circle><circle cx="40" cy="179.8173515981735" r="3" fill="rgb(240, 205, 44)"><title>14192</title></circle><circle cx="40" cy="171.82648401826486" r="3" fill="rgb(241, 204, 44)"><title>14230</title></circle><circle cx="40" cy="167.03196347031962" r="3" fill="rgb(241, 204, 44)"><title>14255</title></circle><circle cx="40" cy="162.23744292237444" r="3" fill="rgb(242, 203, 44)"><title>14279</title></circle><circle cx="42.9" cy="155.8447488584475" r="3" fill="rgb(243, 202, 43)"><title>14334</title></circle><circle cx="42.9" cy="151.0502283105023" r="3" fill="rgb(244, 201, 43)"><title>14367</title></circle><circle cx="45.800000000000004" cy="144.65753424657535" r="3" fill="rgb(245, 199, 42)"><title>14446</title></circle><circle cx="45.800000000000004" cy="139.86301369863014" r="3" fill="rgb(246, 198, 42)"><title>14479</title></circle><circle cx="51.6" cy="133.4703196347032" r="3" fill="rgb(248, 195, 41)"><title>14618</title></circle><circle cx="54.5" cy="127.07762557077626" r="3" fill="rgb(250, 192, 41)"><title>14728</title></circle><circle cx="57.39999999999999" cy="122.28310502283104" r="3" fill="rgb(251, 191, 40)"><title>14768</title></circle><circle cx="60.300000000000004" cy="115.8904109589041" r="3" fill="rgb(252, 188, 40)"><title>14864</title></circle><circle cx="63.2" cy="111.09589041095893" r="3" fill="rgb(253, 187, 39)"><title>14920</title></circle><circle cx="69" cy="104.70319634703199" r="3" fill="rgb(254, 185, 39)"><title>14983</title></circle><circle cx="74.79999999999998" cy="98.31050228310504" r="3" fill="rgb(255, 183, 39)"><title>15055</title></circle><circle cx="80.6" cy="90.31963470319634" r="3" fill="rgb(255, 181, 38)"><title>15114</title></circle><circle cx="86.4" cy="83.92694063926942" r="3" fill="rgb(255, 179, 38)"><title>15192</title></circle><circle cx="98" cy="79.13242009132422" r="3" fill="rgb(255, 177, 37)"><title>15272</title></circle><circle cx="109.6" cy="74.337899543379" r="3" fill="rgb(255, 172, 36)"><title>15442</title></circle><circle cx="121.20000000000002" cy="71.14155251141551" r="3" fill="rgb(255, 168, 36)"><title>15594</title></circle><circle cx="132.8" cy="69.54337899543381" r="3" fill="rgb(255, 164, 35)"><title>15735</title></circle><circle cx="144.4" cy="67.94520547945206" r="3" fill="rgb(255, 161, 34)"><title>15842</title></circle><circle cx="156" cy="64.74885844748857" r="3" fill="rgb(255, 156, 33)"><title>16010</title></circle><circle cx="164.70000000000002" cy="58.35616438356164" r="3" fill="rgb(255, 145, 32)"><title>16363</title></circle><circle cx="176.29999999999998" cy="55.15981735159818" r="3" fill="rgb(255, 141, 31)"><title>16475</title></circle><circle cx="187.9" cy="50.36529680365298" r="3" fill="rgb(255, 138, 31)"><title>16589</title></circle><circle cx="199.5" cy="47.16894977168951" r="3" fill="rgb(255, 135, 30)"><title>16667</title></circle><circle cx="208.2" cy="45.570776255707756" r="3" fill="rgb(255, 134, 30)"><title>16715</title></circle><circle cx="228.5" cy="43.97260273972604" r="3" fill="rgb(255, 129, 29)"><title>16857</title></circle><circle cx="240.09999999999997" cy="43.97260273972604" r="3" fill="rgb(255, 128, 29)"><title>16891</title></circle><circle cx="248.79999999999998" cy="43.97260273972604" r="3" fill="rgb(255, 128, 29)"><title>16915</title></circle><circle cx="260.4" cy="43.97260273972604" r="3" fill="rgb(255, 126, 29)"><title>16972</title></circle><circle cx="272" cy="43.97260273972604" r="3" fill="rgb(255, 124, 28)"><title>17035</title></circle><circle cx="283.59999999999997" cy="43.97260273972604" r="3" fill="rgb(255, 121, 28)"><title>17115</title></circle><circle cx="295.2" cy="40.77625570776257" r="3" fill="rgb(255, 116, 27)"><title>17292</title></circle><circle cx="306.8" cy="39.17808219178082" r="3" fill="rgb(255, 113, 27)"><title>17364</title></circle><circle cx="321.3" cy="39.17808219178082" r="3" fill="rgb(254, 111, 26)"><title>17443</title></circle><circle cx="332.90000000000003" cy="39.17808219178082" r="3" fill="rgb(253, 107, 26)"><title>17549</title></circle><circle cx="344.5" cy="40.77625570776257" r="3" fill="rgb(252, 105, 25)"><title>17621</title></circle><circle cx="353.2" cy="40.77625570776257" r="3" fill="rgb(251, 104, 25)"><title>17653</title></circle><circle cx="367.69999999999993" cy="40.77625570776257" r="3" fill="rgb(250, 103, 25)"><title>17702</title></circle><circle cx="382.19999999999993" cy="42.374429223744286" r="3" fill="rgb(250, 101, 25)"><title>17749</title></circle><circle cx="393.8" cy="43.97260273972604" r="3" fill="rgb(249, 100, 24)"><title>17789</title></circle><circle cx="402.5" cy="47.16894977168951" r="3" fill="rgb(248, 99, 24)"><title>17814</title></circle><circle cx="414.1" cy="48.76712328767123" r="3" fill="rgb(248, 98, 24)"><title>17861</title></circle><circle cx="422.80000000000007" cy="50.36529680365298" r="3" fill="rgb(247, 97, 24)"><title>17887</title></circle><circle cx="434.40000000000003" cy="51.96347031963471" r="3" fill="rgb(245, 93, 23)"><title>18001</title></circle><circle cx="446" cy="55.15981735159818" r="3" fill="rgb(242, 88, 22)"><title>18166</title></circle><circle cx="457.59999999999997" cy="59.9543378995434" r="3" fill="rgb(239, 84, 22)"><title>18293</title></circle><circle cx="466.3" cy="61.55251141552511" r="3" fill="rgb(237, 82, 21)"><title>18366</title></circle><circle cx="477.90000000000003" cy="66.34703196347033" r="3" fill="rgb(234, 78, 20)"><title>18494</title></circle><circle cx="489.5" cy="71.14155251141551" r="3" fill="rgb(231, 74, 20)"><title>18622</title></circle><circle cx="498.2" cy="77.53424657534246" r="3" fill="rgb(229, 72, 19)"><title>18711</title></circle><circle cx="509.80000000000007" cy="83.92694063926942" r="3" fill="rgb(224, 67, 18)"><title>18878</title></circle><circle cx="521.4" cy="90.31963470319634" r="3" fill="rgb(218, 60, 16)"><title>19127</title></circle><circle cx="533" cy="96.71232876712328" r="3" fill="rgb(214, 56, 15)"><title>19270</title></circle><circle cx="541.6999999999999" cy="103.10502283105022" r="3" fill="rgb(210, 53, 14)"><title>19382</title></circle><circle cx="544.6" cy="107.89954337899545" r="3" fill="rgb(209, 51, 14)"><title>19446</title></circle><circle cx="550.4" cy="114.29223744292239" r="3" fill="rgb(206, 49, 13)"><title>19545</title></circle><circle cx="553.3000000000001" cy="120.68493150684932" r="3" fill="rgb(203, 47, 13)"><title>19638</title></circle><circle cx="556.1999999999999" cy="125.47945205479452" r="3" fill="rgb(202, 46, 12)"><title>19670</title></circle><circle cx="559.1" cy="131.87214611872145" r="3" fill="rgb(197, 42, 11)"><title>19846</title></circle><circle cx="564.9" cy="138.26484018264838" r="3" fill="rgb(195, 40, 11)"><title>19898</title></circle><circle cx="573.6" cy="146.25570776255708" r="3" fill="rgb(194, 39, 10)"><title>19934</title></circle><circle cx="579.4" cy="154.24657534246575" r="3" fill="rgb(193, 38, 10)"><title>19982</title></circle><circle cx="582.3000000000001" cy="159.04109589041096" r="3" fill="rgb(192, 38, 10)"><title>20008</title></circle><circle cx="591" cy="165.43378995433793" r="3" fill="rgb(191, 37, 10)"><title>20039</title></circle><circle cx="596.8" cy="173.42465753424656" r="3" fill="rgb(190, 37, 9)"><title>20064</title></circle><circle cx="599.6999999999999" cy="178.2191780821918" r="3" fill="rgb(190, 36, 9)"><title>20088</title></circle><circle cx="605.5" cy="184.61187214611874" r="3" fill="rgb(189, 36, 9)"><title>20104</title></circle><circle cx="605.5" cy="189.40639269406392" r="3" fill="rgb(189, 35, 9)"><title>20120</title></circle><circle cx="608.4" cy="195.79908675799092" r="3" fill="rgb(188, 35, 9)"><title>20136</title></circle><circle cx="611.3000000000001" cy="203.78995433789956" r="3" fill="rgb(187, 34, 9)"><title>20171</title></circle><circle cx="614.1999999999999" cy="208.5844748858448" r="3" fill="rgb(186, 33, 8)"><title>20210</title></circle><circle cx="617.1" cy="214.97716894977174" r="3" fill="rgb(186, 33, 8)"><title>20221</title></circle><circle cx="620" cy="221.36986301369865" r="3" fill="rgb(183, 31, 8)"><title>20313</title></circle><circle cx="617.1" cy="227.7625570776256" r="3" fill="rgb(182, 30, 7)"><title>20359</title></circle><circle cx="617.1" cy="232.55707762557077" r="3" fill="rgb(181, 30, 7)"><title>20384</title></circle><circle cx="620" cy="240.54794520547946" r="3" fill="rgb(179, 29, 7)"><title>20432</title></circle><circle cx="617.1" cy="246.9406392694064" r="3" fill="rgb(178, 28, 6)"><title>20487</title></circle><circle cx="620" cy="251.73515981735162" r="3" fill="rgb(177, 27, 6)"><title>20512</title></circle><circle cx="617.1" cy="259.7260273972603" r="3" fill="rgb(175, 26, 6)"><title>20575</title></circle><circle cx="617.1" cy="266.11872146118725" r="3" fill="rgb(174, 25, 5)"><title>20633</title></circle><circle cx="617.1" cy="270.91324200913243" r="3" fill="rgb(173, 25, 5)"><title>20665</title></circle><circle cx="614.1999999999999" cy="277.30593607305934" r="3" fill="rgb(172, 24, 5)"><title>20713</title></circle><circle cx="608.4" cy="283.69863013698625" r="3" fill="rgb(169, 23, 4)"><title>20792</title></circle><circle cx="602.6" cy="288.4931506849315" r="3" fill="rgb(168, 22, 4)"><title>20842</title></circle><circle cx="591" cy="296.4840182648402" r="3" fill="rgb(166, 21, 3)"><title>20930</title></circle><circle cx="585.1999999999999" cy="301.27853881278537" r="3" fill="rgb(165, 20, 3)"><title>20954</title></circle><circle cx="576.5" cy="307.67123287671234" r="3" fill="rgb(164, 20, 3)"><title>20993</title></circle><circle cx="567.8000000000001" cy="315.66210045662103" r="3" fill="rgb(163, 19, 2)"><title>21035</title></circle><circle cx="556.1999999999999" cy="322.05479452054794" r="3" fill="rgb(162, 19, 2)"><title>21066</title></circle><circle cx="547.5" cy="325.25114155251146" r="3" fill="rgb(162, 18, 2)"><title>21083</title></circle><circle cx="535.9" cy="330.04566210045664" r="3" fill="rgb(161, 18, 2)"><title>21115</title></circle><circle cx="521.4" cy="336.4383561643836" r="3" fill="rgb(161, 18, 1)"><title>21146</title></circle><circle cx="515.6" cy="341.2328767123288" r="3" fill="rgb(160, 17, 1)"><title>21163</title></circle><circle cx="506.90000000000003" cy="344.42922374429224" r="3" fill="rgb(160, 17, 1)"><title>21179</title></circle><circle cx="498.2" cy="349.2237442922375" r="3" fill="rgb(159, 17, 1)"><title>21195</title></circle><circle cx="489.5" cy="354.01826484018267" r="3" fill="rgb(159, 17, 1)"><title>21212</title></circle><circle cx="475" cy="360.4109589041096" r="3" fill="rgb(158, 17, 1)"><title>21243</title></circle><circle cx="463.4" cy="365.20547945205476" r="3" fill="rgb(158, 16, 1)"><title>21275</title></circle><circle cx="454.69999999999993" cy="365.20547945205476" r="3" fill="rgb(157, 16, 0)"><title>21292</title></circle><circle cx="443.09999999999997" cy="368.4018264840183" r="3" fill="rgb(157, 16, 0)"><title>21326</title></circle><circle cx="425.7" cy="370" r="3" fill="rgb(156, 15, 0)"><title>21363</title></circle><circle cx="399.59999999999997" cy="368.4018264840183" r="3" fill="rgb(154, 15, 0)"><title>21438</title></circle><circle cx="289.40000000000003" cy="20" r="3" fill="rgb(144, 12, 0)"><title>22447</title></circle></g></svg>