<svg class="plot" fill="currentColor" text-anchor="middle" width="640" height="400" viewBox="0 0 640 400" xmlns="http://www.w3.org/2000/svg" xmlns:xlink="http://www.w3.org/1999/xlink"><g transform="translate(40,0)" fill="none" text-anchor="end"><g class="tick" opacity="1" transform="translate(0,370)"><line stroke="currentColor" x2="-6"/><line stroke="currentColor" x2="580" stroke-opacity="0.1"/><text fill="currentColor" x="-9" dy="0.32em">0</text></g><g class="tick" opacity="1" transform="translate(0,324.83870967741933)"><line stroke="currentColor" x2="-6"/><line stroke="currentColor" x2="580" stroke-opacity="0.1"/><text fill="currentColor" x="-9" dy="0.32em">20</text></g><g class="tick" opacity="1" transform="translate(0,279.6774193548387)"><line stroke="currentColor" x2="-6"/><line stroke="currentColor" x2="580" stroke-opacity="0.1"/><text fill="currentColor" x="-9" dy="0.32em">40</text></g><g class="tick" opacity="1" transform="translate(0,234.51612903225808)"><line stroke="currentColor" x2="-6"/><line stroke="currentColor" x2="580" stroke-opacity="0.1"/><text fill="currentColor" x="-9" dy="0.32em">60</text></g><g class="tick" opacity="1" transform="translate(0,189.3548387096774)"><line stroke="currentColor" x2="-6"/><line stroke="currentColor" x2="580" stroke-opacity="0.1"/><text fill="currentColor" x="-9" dy="0.32em">80</text></g><g class="tick" opacity="1" transform="translate(0,144.1935483870968)"><line stroke="currentColor" x2="-6"/><line stroke="currentColor" x2="580" stroke-opacity="0.1"/><text fill="currentColor" x="-9" dy="0.32em">100</text></g><g class="tick" opacity="1" transform="translate(0,99.03225806451614)"><line stroke="currentColor" x2="-6"/><line stroke="currentColor" x2="580" stroke-opacity="0.1"/><text fill="currentColor" x="-9" dy="0.32em">120</text></g><g class="tick" opacity="1" transform="translate(0,53.870967741935495)"><line stroke="currentColor" x2="-6"/><line stroke="currentColor" x2="580" stroke-opacity="0.1"/><text fill="currentColor" x="-9" dy="0.32em">140</text></g><text fill="currentColor" transform="translate(-40,20)" dy="-1em" text-anchor="start">↑ Y</text></g><g transform="translate(0,370)" fill="none" text-anchor="middle"><g class="tick" opacity="1" transform="translate(93.42105263157895,0)"><line stroke="currentColor" y2="6"/><line stroke="currentColor" y2="-350" stroke-opacity="0.1"/><text fill="currentColor" y="9" dy="0.71em">100</text></g><g class="tick" opacity="1" transform="translate(169.73684210526315,0)"><line stroke="currentColor" y2="6"/><line stroke="currentColor" y2="-350" stroke-opacity="0.1"/><text fill="currentColor" y="9" dy="0.71em">120</text></g><g class="tick" opacity="1" transform="translate(246.05263157894737,0)"><line stroke="currentColor" y2="6"/><line stroke="currentColor" y2="-350" stroke-opacity="0.1"/><text fill="currentColor" y="9" dy="0.71em">140</text></g><g class="tick" opacity="1" transform="translate(322.3684210526316,0)"><line stroke="currentColor" y2="6"/><line stroke="currentColor" y2="-350" stroke-opacity="0.1"/><text fill="currentColor" y="9" dy="0.71em">160</text></g><g class="tick" opacity="1" transform="translate(398.6842105263158,0)"><line stroke="currentColor" y2="6"/><line stroke="currentColor" y2="-350" stroke-opacity="0.1"/><text fill="currentColor" y="9" dy="0.71em">180</text></g><g class="tick" opacity="1" transform="translate(475,0)"><line stroke="currentColor" y2="6"/><line stroke="currentColor" y2="-350" stroke-opacity="0.1"/><text fill="currentColor" y="9" dy="0.71em">200</text></g><g class="tick" opacity="1" transform="translate(551.3157894736842,0)"><line stroke="currentColor" y2="6"/><line stroke="currentColor" y2="-350" stroke-opacity="0.1"/><text fill="currentColor" y="9" dy="0.71em">220</text></g><text fill="currentColor" transform="translate(640,30)" dy="-0.32em" text-anchor="end">X →</text></g><g><circle cx="123.94736842105263" cy="87.74193548387099" r="3" fill="rgb(35, 23, 27)"><title>0</title></circle><circle cx="123.94736842105263" cy="96.77419354838709" r="3" fill="rgb(50, 32, 72)"><title>216</title></circle><circle cx="120.13157894736842" cy="108.06451612903226" r="3" fill="rgb(59, 39, 102)"><title>378</title></circle><circle cx="104.86842105263158" cy="114.83870967741936" r="3" fill="rgb(67, 48, 135)"><title>584</title></circle><circle cx="89.60526315789474" cy="114.83870967741936" r="3" fill="rgb(71, 57, 161)"><title>775</title></circle><circle cx="74.34210526315789" cy="108.06451612903226" r="3" fill="rgb(74, 66, 183)"><title>968</title></circle><circle cx="62.89473684210526" cy="99.03225806451614" r="3" fill="rgb(75, 71, 194)"><title>1080</title></circle><circle cx="51.44736842105263" cy="89.99999999999999" r="3" fill="rgb(75, 76, 204)"><title>1192</title></circle><circle cx="43.81578947368421" cy="76.4516129032258" r="3" fill="rgb(74, 82, 212)"><title>1298</title></circle><circle cx="43.81578947368421" cy="69.67741935483872" r="3" fill="rgb(74, 83, 213)"><title>1320</title></circle><circle cx="40" cy="60.64516129032257" r="3" fill="rgb(74, 85, 217)"><title>1371</title></circle><circle cx="40" cy="53.870967741935495" r="3" fill="rgb(73, 89, 222)"><title>1453</title></circle><circle cx="43.81578947368421" cy="44.838709677419345" r="3" fill="rgb(73, 91, 225)"><title>1496</title></circle><circle cx="51.44736842105263" cy="35.80645161290323" r="3" fill="rgb(69, 103, 236)"><title>1738</title></circle><circle cx="66.71052631578948" cy="33.54838709677419" r="3" fill="rgb(69, 104, 237)"><title>1760</title></circle><circle cx="81.97368421052632" cy="26.774193548387117" r="3" fill="rgb(66, 112, 242)"><title>1907</title></circle><circle cx="97.23684210526315" cy="20" r="3" fill="rgb(64, 117, 245)"><title>2024</title></circle><circle cx="620" cy="160" r="3" fill="rgb(163, 19, 2)"><title>13391</title></circle><circle cx="620" cy="169.0322580645161" r="3" fill="rgb(161, 18, 2)"><title>13422</title></circle><circle cx="620" cy="175.80645161290323" r="3" fill="rgb(161, 18, 1)"><title>13447</title></circle><circle cx="620" cy="187.09677419354838" r="3" fill="rgb(159, 17, 1)"><title>13486</title></circle><circle cx="616.1842105263158" cy="196.1290322580645" r="3" fill="rgb(157, 16, 0)"><title>13545</title></circle><circle cx="597.1052631578947" cy="200.6451612903226" r="3" fill="rgb(153, 14, 0)"><title>13673</title></circle><circle cx="585.6578947368421" cy="180.32258064516128" r="3" fill="rgb(151, 13, 0)"><title>13728</title></circle><circle cx="566.5789473684212" cy="171.29032258064515" r="3" fill="rgb(150, 13, 0)"><title>13775</title></circle><circle cx="558.9473684210526" cy="182.5806451612903" r="3" fill="rgb(148, 12, 0)"><title>13854</title></circle><circle cx="555.1315789473684" cy="191.61290322580646" r="3" fill="rgb(148, 12, 0)"><title>13879</title></circle><circle cx="551.3157894736842" cy="198.3870967741936" r="3" fill="rgb(148, 12, 0)"><title>13895</title></circle><circle cx="547.5" cy="205.16129032258064" r="3" fill="rgb(147, 12, 0)"><title>13911</title></circle><circle cx="539.8684210526316" cy="211.93548387096772" r="3" fill="rgb(147, 12, 0)"><title>13927</title></circle><circle cx="536.0526315789474" cy="220.9677419354839" r="3" fill="rgb(147, 12, 0)"><title>13943</title></circle><circle cx="532.2368421052632" cy="232.25806451612902" r="3" fill="rgb(147, 12, 0)"><title>13951</title></circle><circle cx="528.4210526315788" cy="239.0322580645161" r="3" fill="rgb(146, 12, 0)"><title>13961</title></circle><circle cx="524.6052631578947" cy="245.8064516129032" r="3" fill="rgb(146, 12, 0)"><title>13970</title></circle><circle cx="513.1578947368421" cy="257.0967741935484" r="3" fill="rgb(146, 12, 0)"><title>13989</title></circle><circle cx="505.5263157894737" cy="263.8709677419355" r="3" fill="rgb(146, 12, 0)"><title>14000</title></circle><circle cx="490.2631578947369" cy="270.64516129032256" r="3" fill="rgb(146, 12, 0)"><title>14009</title></circle><circle cx="478.8157894736842" cy="272.90322580645164" r="3" fill="rgb(145, 11, 0)"><title>14023</title></circle><circle cx="459.7368421052631" cy="279.6774193548387" r="3" fill="rgb(145, 11, 0)"><title>14054</title></circle><circle cx="444.4736842105263" cy="286.45161290322574" r="3" fill="rgb(145, 11, 0)"><title>14087</title></circle><circle cx="433.0263157894737" cy="288.7096774193548" r="3" fill="rgb(145, 12, 0)"><title>14103</title></circle><circle cx="421.5789473684211" cy="290.96774193548384" r="3" fill="rgb(144, 12, 0)"><title>14119</title></circle><circle cx="406.3157894736842" cy="297.741935483871" r="3" fill="rgb(144, 12, 0)"><title>14150</title></circle><circle cx="391.05263157894734" cy="311.2903225806452" r="3" fill="rgb(144, 12, 0)"><title>14191</title></circle><circle cx="383.4210526315789" cy="320.3225806451613" r="3" fill="rgb(144, 12, 0)"><title>14215</title></circle><circle cx="387.2368421052631" cy="333.8709677419355" r="3" fill="rgb(144, 12, 0)"><title>14238</title></circle><circle cx="391.05263157894734" cy="345.16129032258067" r="3" fill="rgb(144, 12, 0)"><title>14247</title></circle><circle cx="410.13157894736844" cy="358.7096774193548" r="3" fill="rgb(144, 12, 0)"><title>14262</title></circle><circle cx="421.5789473684211" cy="370" r="3" fill="rgb(144, 12, 0)"><title>14272</title></circle></g></svg>